<svg xmlns="http://www.w3.org/2000/svg" xmlns:xlink="http://www.w3.org/1999/xlink" style="margin:auto;background:#f1f2f3;display:block;z-index:1;position:relative" width="1920" height="1080" preserveAspectRatio="xMidYMid" viewBox="0 0 1920 1080">
    <g transform="translate(960,540) scale(1,1) translate(-960,-540)"><defs>
    <linearGradient id="lg-0.5468341992896812" x1="0" x2="0" y1="0" y2="1">
      <stop stop-color="#62a8c1" offset="0.1"></stop>
      <stop stop-color="#26319c" offset="0.55"></stop>
      <stop stop-color="#050328" offset="1"></stop>
    </linearGradient>
    <linearGradient id="fg-lg-0.5468341992896812" x1="0" x2="0" y1="0" y2="1">
      <stop stop-color="#62a8c1" stop-opacity="1" offset="0.1"></stop>
      <stop stop-color="#26319c" stop-opacity="0.66" offset="0.55"></stop>
      <stop stop-color="#050328" stop-opacity="0" offset="1"></stop>
    </linearGradient>
    <style type="text/css">
      path { fill: none; stroke: #54625b; stroke-width: 1px }
    </style>
    </defs>
    <rect x="0" y="0" width="1920" height="1080" fill="url(#lg-0.5468341992896812)"></rect><path d="M0 108 L-5760 1080"></path><path d="M9.6 108 L-5692.8 1080"></path><path d="M19.2 108 L-5625.6 1080"></path><path d="M28.8 108 L-5558.4 1080"></path><path d="M38.4 108 L-5491.2 1080"></path><path d="M48 108 L-5424 1080"></path><path d="M57.6 108 L-5356.8 1080"></path><path d="M67.2 108 L-5289.6 1080"></path><path d="M76.8 108 L-5222.4 1080"></path><path d="M86.4 108 L-5155.2 1080"></path><path d="M96 108 L-5088 1080"></path><path d="M105.6 108 L-5020.8 1080"></path><path d="M115.2 108 L-4953.6 1080"></path><path d="M124.8 108 L-4886.4 1080"></path><path d="M134.4 108 L-4819.2 1080"></path><path d="M144 108 L-4752 1080"></path><path d="M153.6 108 L-4684.8 1080"></path><path d="M163.2 108 L-4617.6 1080"></path><path d="M172.8 108 L-4550.4 1080"></path><path d="M182.4 108 L-4483.2 1080"></path><path d="M192 108 L-4416 1080"></path><path d="M201.6 108 L-4348.8 1080"></path><path d="M211.2 108 L-4281.6 1080"></path><path d="M220.8 108 L-4214.4 1080"></path><path d="M230.4 108 L-4147.2 1080"></path><path d="M240 108 L-4080 1080"></path><path d="M249.6 108 L-4012.8 1080"></path><path d="M259.2 108 L-3945.6 1080"></path><path d="M268.8 108 L-3878.4 1080"></path><path d="M278.4 108 L-3811.2 1080"></path><path d="M288 108 L-3744 1080"></path><path d="M297.6 108 L-3676.8 1080"></path><path d="M307.2 108 L-3609.6 1080"></path><path d="M316.8 108 L-3542.4 1080"></path><path d="M326.4 108 L-3475.2 1080"></path><path d="M336 108 L-3408 1080"></path><path d="M345.6 108 L-3340.8 1080"></path><path d="M355.2 108 L-3273.6 1080"></path><path d="M364.8 108 L-3206.4 1080"></path><path d="M374.4 108 L-3139.2 1080"></path><path d="M384 108 L-3072 1080"></path><path d="M393.6 108 L-3004.8 1080"></path><path d="M403.2 108 L-2937.6 1080"></path><path d="M412.8 108 L-2870.4 1080"></path><path d="M422.4 108 L-2803.2 1080"></path><path d="M432 108 L-2736 1080"></path><path d="M441.6 108 L-2668.8 1080"></path><path d="M451.2 108 L-2601.6 1080"></path><path d="M460.8 108 L-2534.4 1080"></path><path d="M470.4 108 L-2467.2 1080"></path><path d="M480 108 L-2400 1080"></path><path d="M489.6 108 L-2332.8 1080"></path><path d="M499.2 108 L-2265.6 1080"></path><path d="M508.8 108 L-2198.4 1080"></path><path d="M518.4 108 L-2131.2 1080"></path><path d="M528 108 L-2064 1080"></path><path d="M537.6 108 L-1996.8000000000002 1080"></path><path d="M547.2 108 L-1929.6 1080"></path><path d="M556.8 108 L-1862.4 1080"></path><path d="M566.4 108 L-1795.1999999999998 1080"></path><path d="M576 108 L-1728 1080"></path><path d="M585.6 108 L-1660.8000000000002 1080"></path><path d="M595.2 108 L-1593.6000000000004 1080"></path><path d="M604.8 108 L-1526.3999999999996 1080"></path><path d="M614.4 108 L-1459.1999999999998 1080"></path><path d="M624 108 L-1392 1080"></path><path d="M633.6 108 L-1324.8000000000002 1080"></path><path d="M643.2 108 L-1257.6000000000004 1080"></path><path d="M652.8 108 L-1190.3999999999996 1080"></path><path d="M662.4 108 L-1123.1999999999998 1080"></path><path d="M672 108 L-1056 1080"></path><path d="M681.6 108 L-988.8000000000002 1080"></path><path d="M691.2 108 L-921.6000000000004 1080"></path><path d="M700.8 108 L-854.3999999999996 1080"></path><path d="M710.4 108 L-787.1999999999998 1080"></path><path d="M720 108 L-720 1080"></path><path d="M729.6 108 L-652.8000000000002 1080"></path><path d="M739.2 108 L-585.6000000000004 1080"></path><path d="M748.8 108 L-518.3999999999996 1080"></path><path d="M758.4 108 L-451.1999999999998 1080"></path><path d="M768 108 L-384 1080"></path><path d="M777.6 108 L-316.8000000000002 1080"></path><path d="M787.2 108 L-249.60000000000036 1080"></path><path d="M796.8 108 L-182.39999999999964 1080"></path><path d="M806.4 108 L-115.19999999999982 1080"></path><path d="M816 108 L-48 1080"></path><path d="M825.6 108 L19.199999999999818 1080"></path><path d="M835.2 108 L86.39999999999964 1080"></path><path d="M844.8 108 L153.60000000000036 1080"></path><path d="M854.4 108 L220.80000000000018 1080"></path><path d="M864 108 L288 1080"></path><path d="M873.6 108 L355.1999999999998 1080"></path><path d="M883.2 108 L422.39999999999964 1080"></path><path d="M892.8 108 L489.60000000000036 1080"></path><path d="M902.4 108 L556.8000000000002 1080"></path><path d="M912 108 L624 1080"></path><path d="M921.6 108 L691.1999999999998 1080"></path><path d="M931.2 108 L758.3999999999996 1080"></path><path d="M940.8 108 L825.6000000000004 1080"></path><path d="M950.4 108 L892.8000000000002 1080"></path><path d="M960 108 L960 1080"></path><path d="M969.6 108 L1027.1999999999998 1080"></path><path d="M979.2 108 L1094.3999999999996 1080"></path><path d="M988.8 108 L1161.6000000000004 1080"></path><path d="M998.4 108 L1228.8000000000002 1080"></path><path d="M1008 108 L1296 1080"></path><path d="M1017.6 108 L1363.1999999999998 1080"></path><path d="M1027.2 108 L1430.3999999999996 1080"></path><path d="M1036.8 108 L1497.6000000000004 1080"></path><path d="M1046.4 108 L1564.8000000000002 1080"></path><path d="M1056 108 L1632 1080"></path><path d="M1065.6 108 L1699.1999999999998 1080"></path><path d="M1075.2 108 L1766.3999999999996 1080"></path><path d="M1084.8 108 L1833.6000000000004 1080"></path><path d="M1094.4 108 L1900.8000000000002 1080"></path><path d="M1104 108 L1968 1080"></path><path d="M1113.6 108 L2035.1999999999998 1080"></path><path d="M1123.2 108 L2102.3999999999996 1080"></path><path d="M1132.8 108 L2169.6000000000004 1080"></path><path d="M1142.4 108 L2236.8 1080"></path><path d="M1152 108 L2304 1080"></path><path d="M1161.6 108 L2371.2 1080"></path><path d="M1171.2 108 L2438.3999999999996 1080"></path><path d="M1180.8 108 L2505.6000000000004 1080"></path><path d="M1190.4 108 L2572.7999999999993 1080"></path><path d="M1200 108 L2640 1080"></path><path d="M1209.6 108 L2707.2000000000007 1080"></path><path d="M1219.2 108 L2774.3999999999996 1080"></path><path d="M1228.8 108 L2841.6000000000004 1080"></path><path d="M1238.4 108 L2908.7999999999993 1080"></path><path d="M1248 108 L2976 1080"></path><path d="M1257.6 108 L3043.2000000000007 1080"></path><path d="M1267.2 108 L3110.3999999999996 1080"></path><path d="M1276.8 108 L3177.6000000000004 1080"></path><path d="M1286.4 108 L3244.7999999999993 1080"></path><path d="M1296 108 L3312 1080"></path><path d="M1305.6 108 L3379.2000000000007 1080"></path><path d="M1315.2 108 L3446.3999999999996 1080"></path><path d="M1324.8 108 L3513.6000000000004 1080"></path><path d="M1334.4 108 L3580.7999999999993 1080"></path><path d="M1344 108 L3648 1080"></path><path d="M1353.6 108 L3715.2000000000007 1080"></path><path d="M1363.2 108 L3782.3999999999996 1080"></path><path d="M1372.8 108 L3849.6000000000004 1080"></path><path d="M1382.4 108 L3916.7999999999993 1080"></path><path d="M1392 108 L3984 1080"></path><path d="M1401.6 108 L4051.2000000000007 1080"></path><path d="M1411.2 108 L4118.4 1080"></path><path d="M1420.8 108 L4185.6 1080"></path><path d="M1430.4 108 L4252.799999999999 1080"></path><path d="M1440 108 L4320 1080"></path><path d="M1449.6 108 L4387.200000000001 1080"></path><path d="M1459.2 108 L4454.4 1080"></path><path d="M1468.8 108 L4521.6 1080"></path><path d="M1478.4 108 L4588.799999999999 1080"></path><path d="M1488 108 L4656 1080"></path><path d="M1497.6 108 L4723.200000000001 1080"></path><path d="M1507.2 108 L4790.4 1080"></path><path d="M1516.8 108 L4857.6 1080"></path><path d="M1526.4 108 L4924.799999999999 1080"></path><path d="M1536 108 L4992 1080"></path><path d="M1545.6 108 L5059.200000000001 1080"></path><path d="M1555.2 108 L5126.4 1080"></path><path d="M1564.8 108 L5193.6 1080"></path><path d="M1574.4 108 L5260.799999999999 1080"></path><path d="M1584 108 L5328 1080"></path><path d="M1593.6 108 L5395.200000000001 1080"></path><path d="M1603.2 108 L5462.4 1080"></path><path d="M1612.8 108 L5529.6 1080"></path><path d="M1622.4 108 L5596.799999999999 1080"></path><path d="M1632 108 L5664 1080"></path><path d="M1641.6 108 L5731.200000000001 1080"></path><path d="M1651.2 108 L5798.4 1080"></path><path d="M1660.8 108 L5865.6 1080"></path><path d="M1670.4 108 L5932.799999999999 1080"></path><path d="M1680 108 L6000 1080"></path><path d="M1689.6 108 L6067.200000000001 1080"></path><path d="M1699.2 108 L6134.4 1080"></path><path d="M1708.8 108 L6201.6 1080"></path><path d="M1718.4 108 L6268.799999999999 1080"></path><path d="M1728 108 L6336 1080"></path><path d="M1737.6 108 L6403.200000000001 1080"></path><path d="M1747.2 108 L6470.4 1080"></path><path d="M1756.8 108 L6537.6 1080"></path><path d="M1766.4 108 L6604.799999999999 1080"></path><path d="M1776 108 L6672 1080"></path><path d="M1785.6 108 L6739.200000000001 1080"></path><path d="M1795.2 108 L6806.4 1080"></path><path d="M1804.8 108 L6873.6 1080"></path><path d="M1814.4 108 L6940.799999999999 1080"></path><path d="M1824 108 L7008 1080"></path><path d="M1833.6 108 L7075.200000000001 1080"></path><path d="M1843.2 108 L7142.4 1080"></path><path d="M1852.8 108 L7209.6 1080"></path><path d="M1862.4 108 L7276.799999999999 1080"></path><path d="M1872 108 L7344 1080"></path><path d="M1881.6 108 L7411.200000000001 1080"></path><path d="M1891.2 108 L7478.4 1080"></path><path d="M1900.8 108 L7545.6 1080"></path><path d="M1910.4 108 L7612.799999999999 1080"></path><path d="M1920 108 L7680 1080"></path><g>
    <path d="M0 108 L1920 108"></path>
    <animateTransform attributeName="transform" type="translate" repeatCount="indefinite" calcMode="linear" keyTimes="0;1" values="0 0;0 3.1104" begin="0s" dur="0.8333333333333334s"></animateTransform>
    
    </g><g>
    <path d="M0 111.1104 L1920 111.1104"></path>
    <animateTransform attributeName="transform" type="translate" repeatCount="indefinite" calcMode="linear" keyTimes="0;1" values="0 0;0 6.220799999999999" begin="0s" dur="0.8333333333333334s"></animateTransform>
    
    </g><g>
    <path d="M0 117.3312 L1920 117.3312"></path>
    <animateTransform attributeName="transform" type="translate" repeatCount="indefinite" calcMode="linear" keyTimes="0;1" values="0 0;0 9.331199999999999" begin="0s" dur="0.8333333333333334s"></animateTransform>
    
    </g><g>
    <path d="M0 126.66239999999999 L1920 126.66239999999999"></path>
    <animateTransform attributeName="transform" type="translate" repeatCount="indefinite" calcMode="linear" keyTimes="0;1" values="0 0;0 12.4416" begin="0s" dur="0.8333333333333334s"></animateTransform>
    
    </g><g>
    <path d="M0 139.10399999999998 L1920 139.10399999999998"></path>
    <animateTransform attributeName="transform" type="translate" repeatCount="indefinite" calcMode="linear" keyTimes="0;1" values="0 0;0 15.551999999999998" begin="0s" dur="0.8333333333333334s"></animateTransform>
    
    </g><g>
    <path d="M0 154.65599999999998 L1920 154.65599999999998"></path>
    <animateTransform attributeName="transform" type="translate" repeatCount="indefinite" calcMode="linear" keyTimes="0;1" values="0 0;0 18.662399999999998" begin="0s" dur="0.8333333333333334s"></animateTransform>
    
    </g><g>
    <path d="M0 173.31839999999997 L1920 173.31839999999997"></path>
    <animateTransform attributeName="transform" type="translate" repeatCount="indefinite" calcMode="linear" keyTimes="0;1" values="0 0;0 21.772799999999997" begin="0s" dur="0.8333333333333334s"></animateTransform>
    
    </g><g>
    <path d="M0 195.09119999999996 L1920 195.09119999999996"></path>
    <animateTransform attributeName="transform" type="translate" repeatCount="indefinite" calcMode="linear" keyTimes="0;1" values="0 0;0 24.883199999999995" begin="0s" dur="0.8333333333333334s"></animateTransform>
    
    </g><g>
    <path d="M0 219.97439999999995 L1920 219.97439999999995"></path>
    <animateTransform attributeName="transform" type="translate" repeatCount="indefinite" calcMode="linear" keyTimes="0;1" values="0 0;0 27.993599999999994" begin="0s" dur="0.8333333333333334s"></animateTransform>
    
    </g><g>
    <path d="M0 247.96799999999993 L1920 247.96799999999993"></path>
    <animateTransform attributeName="transform" type="translate" repeatCount="indefinite" calcMode="linear" keyTimes="0;1" values="0 0;0 31.103999999999992" begin="0s" dur="0.8333333333333334s"></animateTransform>
    
    </g><g>
    <path d="M0 279.07199999999995 L1920 279.07199999999995"></path>
    <animateTransform attributeName="transform" type="translate" repeatCount="indefinite" calcMode="linear" keyTimes="0;1" values="0 0;0 34.21439999999999" begin="0s" dur="0.8333333333333334s"></animateTransform>
    
    </g><g>
    <path d="M0 313.28639999999996 L1920 313.28639999999996"></path>
    <animateTransform attributeName="transform" type="translate" repeatCount="indefinite" calcMode="linear" keyTimes="0;1" values="0 0;0 37.32479999999999" begin="0s" dur="0.8333333333333334s"></animateTransform>
    
    </g><g>
    <path d="M0 350.61119999999994 L1920 350.61119999999994"></path>
    <animateTransform attributeName="transform" type="translate" repeatCount="indefinite" calcMode="linear" keyTimes="0;1" values="0 0;0 40.43519999999999" begin="0s" dur="0.8333333333333334s"></animateTransform>
    
    </g><g>
    <path d="M0 391.04639999999995 L1920 391.04639999999995"></path>
    <animateTransform attributeName="transform" type="translate" repeatCount="indefinite" calcMode="linear" keyTimes="0;1" values="0 0;0 43.545599999999986" begin="0s" dur="0.8333333333333334s"></animateTransform>
    
    </g><g>
    <path d="M0 434.5919999999999 L1920 434.5919999999999"></path>
    <animateTransform attributeName="transform" type="translate" repeatCount="indefinite" calcMode="linear" keyTimes="0;1" values="0 0;0 46.655999999999985" begin="0s" dur="0.8333333333333334s"></animateTransform>
    
    </g><g>
    <path d="M0 481.24799999999993 L1920 481.24799999999993"></path>
    <animateTransform attributeName="transform" type="translate" repeatCount="indefinite" calcMode="linear" keyTimes="0;1" values="0 0;0 49.76639999999998" begin="0s" dur="0.8333333333333334s"></animateTransform>
    
    </g><g>
    <path d="M0 531.0143999999999 L1920 531.0143999999999"></path>
    <animateTransform attributeName="transform" type="translate" repeatCount="indefinite" calcMode="linear" keyTimes="0;1" values="0 0;0 52.87679999999998" begin="0s" dur="0.8333333333333334s"></animateTransform>
    
    </g><g>
    <path d="M0 583.8911999999999 L1920 583.8911999999999"></path>
    <animateTransform attributeName="transform" type="translate" repeatCount="indefinite" calcMode="linear" keyTimes="0;1" values="0 0;0 55.98719999999998" begin="0s" dur="0.8333333333333334s"></animateTransform>
    
    </g><g>
    <path d="M0 639.8783999999999 L1920 639.8783999999999"></path>
    <animateTransform attributeName="transform" type="translate" repeatCount="indefinite" calcMode="linear" keyTimes="0;1" values="0 0;0 59.09759999999998" begin="0s" dur="0.8333333333333334s"></animateTransform>
    
    </g><g>
    <path d="M0 698.9759999999999 L1920 698.9759999999999"></path>
    <animateTransform attributeName="transform" type="translate" repeatCount="indefinite" calcMode="linear" keyTimes="0;1" values="0 0;0 62.207999999999984" begin="0s" dur="0.8333333333333334s"></animateTransform>
    
    </g><g>
    <path d="M0 761.1839999999999 L1920 761.1839999999999"></path>
    <animateTransform attributeName="transform" type="translate" repeatCount="indefinite" calcMode="linear" keyTimes="0;1" values="0 0;0 65.31839999999998" begin="0s" dur="0.8333333333333334s"></animateTransform>
    
    </g><g>
    <path d="M0 826.5023999999999 L1920 826.5023999999999"></path>
    <animateTransform attributeName="transform" type="translate" repeatCount="indefinite" calcMode="linear" keyTimes="0;1" values="0 0;0 68.42879999999998" begin="0s" dur="0.8333333333333334s"></animateTransform>
    
    </g><g>
    <path d="M0 894.9311999999999 L1920 894.9311999999999"></path>
    <animateTransform attributeName="transform" type="translate" repeatCount="indefinite" calcMode="linear" keyTimes="0;1" values="0 0;0 71.53919999999998" begin="0s" dur="0.8333333333333334s"></animateTransform>
    
    </g><g>
    <path d="M0 966.4703999999998 L1920 966.4703999999998"></path>
    <animateTransform attributeName="transform" type="translate" repeatCount="indefinite" calcMode="linear" keyTimes="0;1" values="0 0;0 74.64959999999998" begin="0s" dur="0.8333333333333334s"></animateTransform>
    
    </g><g>
    <path d="M0 1041.12 L1920 1041.12"></path>
    <animateTransform attributeName="transform" type="translate" repeatCount="indefinite" calcMode="linear" keyTimes="0;1" values="0 0;0 77.75999999999998" begin="0s" dur="0.8333333333333334s"></animateTransform>
    
    </g><rect x="0" y="0" width="1920" height="1080" fill="url(#fg-lg-0.5468341992896812)"></rect></g>
    </svg>