<svg version="1.2" xmlns="http://www.w3.org/2000/svg" viewBox="0 0 201 201" width="201" height="201"><style></style><path  d="m87.4 3.4q3-1.5 6.4-2.4 3.4-0.8 6.9-0.8 3.5 0 6.9 0.8 3.4 0.9 6.5 2.4l73.5 38.2q3.1 1.6 5.6 3.8 2.5 2.2 4.2 5 1.8 2.7 2.7 5.7 0.9 3.1 0.9 6.3v76.2q0 3.2-0.9 6.3-0.9 3-2.7 5.7-1.7 2.8-4.2 5-2.5 2.2-5.6 3.8l-73.5 38.2q-3.1 1.5-6.5 2.4-3.4 0.8-6.9 0.8-3.5 0-6.9-0.8-3.4-0.9-6.4-2.4l-73.6-38.2q-3.1-1.6-5.5-3.8-2.5-2.2-4.3-5-1.7-2.7-2.7-5.7-0.9-3.1-0.9-6.3v-76.2q0-3.2 0.9-6.3 1-3 2.7-5.7 1.8-2.8 4.3-5 2.4-2.2 5.5-3.8"/></svg>