<svg width="80" height="130" viewBox="0 0 80 130" fill="none" xmlns="http://www.w3.org/2000/svg">
<g clip-path="url(#clip0_202_4)">
<g clip-path="url(#clip1_202_4)">
<path d="M67.7623 19.1825C65.4844 18.8153 63.1504 19.0247 60.9751 19.7915C58.7999 20.5583 56.8532 21.8578 55.3145 23.5705C52.3767 26.8484 51.4634 31.1168 52.1689 35.3941C52.8078 39.2508 53.6545 43.1651 53.8456 46.8813C54.1123 52.4779 53.2571 58.0713 51.33 63.3352C49.5856 68.0983 47.1023 71.7924 41.7778 72.6091C41.3834 72.6711 39.9456 72.7153 39.5378 72.7375C39.13 72.7596 37.8378 72.6755 37.4389 72.6135C32.1167 71.7968 29.6089 68.1027 27.87 63.3087C25.9433 58.0447 25.0885 52.4513 25.3556 46.8547C25.5467 43.1518 26.3934 39.2331 27.0334 35.3675C27.7378 31.0903 26.8245 26.8219 23.8867 23.5439C22.3429 21.8324 20.3912 20.5358 18.2116 19.7737C16.032 19.0117 13.6947 18.8087 11.4156 19.1836C4.58782 20.2903 0.0400447 26.3261 4.47451e-05 32.6573C-0.0185825 35.0969 0.64716 37.4932 1.92227 39.5762C4.04671 43.0666 7.53338 45.612 10.5778 48.2547C12.5912 50.022 16.0734 55.0363 17.7812 60.4712C18.8145 63.7624 19.6589 67.099 20.4923 70.4644C21.6634 75.1566 23.2734 85.5228 24.3345 90.2294C26.45 99.6483 32.9278 101.783 39.4178 101.999H39.6489C46.1389 101.782 52.7234 99.6438 54.8389 90.2239C55.8945 85.5184 57.5012 75.1489 58.6812 70.461C59.52 67.1112 60.3589 63.758 61.3923 60.4667C63.1 55.033 66.5823 49.9999 68.5967 48.2491C71.64 45.5987 75.1223 43.0622 77.2523 39.5729C78.5272 37.4894 79.1926 35.0927 79.1734 32.6529C79.1378 26.3084 74.6078 20.2693 67.7623 19.1814V19.1825Z" fill="black"/>
</g>
</g>
</svg>
